<svg width="26" height="8" viewBox="0 0 26 8" fill="none" xmlns="http://www.w3.org/2000/svg">
<rect width="26" height="8" fill="#E5E5E5"/>
<g id="Desktop">
<g id="Desktop_single_photo" clip-path="url(#clip0_0_1)">
<rect width="1440" height="1939" transform="translate(-1267 -1056)" fill="white"/>
</g>
<path id="Line 7" d="M25.3536 3.64645C25.5488 3.84171 25.5488 4.15829 25.3536 4.35355L22.1716 7.53553C21.9763 7.7308 21.6597 7.7308 21.4645 7.53553C21.2692 7.34027 21.2692 7.02369 21.4645 6.82843L24.2929 4L21.4645 1.17157C21.2692 0.976311 21.2692 0.659728 21.4645 0.464466C21.6597 0.269204 21.9763 0.269204 22.1716 0.464466L25.3536 3.64645ZM25 4.5H0V3.5H25V4.5Z" fill="black"/>
<path d="M-6091 -1546H1360V-1548H-6091V-1546ZM1361 -1545V4796H1363V-1545H1361ZM1360 4797H-6091V4799H1360V4797ZM-6092 4796V-1545H-6094V4796H-6092ZM-6091 4797C-6091.55 4797 -6092 4796.55 -6092 4796H-6094C-6094 4797.66 -6092.66 4799 -6091 4799V4797ZM1361 4796C1361 4796.55 1360.55 4797 1360 4797V4799C1361.66 4799 1363 4797.66 1363 4796H1361ZM1360 -1546C1360.55 -1546 1361 -1545.55 1361 -1545H1363C1363 -1546.66 1361.66 -1548 1360 -1548V-1546ZM-6091 -1548C-6092.66 -1548 -6094 -1546.66 -6094 -1545H-6092C-6092 -1545.55 -6091.55 -1546 -6091 -1546V-1548Z" fill="black" fill-opacity="0.1"/>
</g>
<defs>
<clipPath id="clip0_0_1">
<rect width="1440" height="1939" fill="white" transform="translate(-1267 -1056)"/>
</clipPath>
</defs>
</svg>
